<svg
    version="1.1"
    viewBox="0 0 2048 2048"
    xmlSpace="preserve"
    xmlns="http://www.w3.org/2000/svg"
    preserveAspectRatio="none"
  >
    <path
      d="m1391.9 1250c-19.799 43.28-44.233 82.814-73.946 119.02-48.148 58.673-105.91 105.35-173.67 139.8-59.383 30.195-122.17 48.336-188.28 55.395-31.86 3.4017-63.867 3.6632-95.713 1.3286-62.486-4.5806-122.53-19.605-179.79-45.386-52.929-23.833-100.8-55.214-143.63-94.472-47.61-43.644-86.182-94.019-115.69-151.48-22.17-43.176-38.293-88.414-48.064-135.93-4.9539-24.088-8.9199-48.334-9.6028-72.975-0.59891-21.611-2.0012-43.284-1.0065-64.835 1.6399-35.532 6.9325-70.69 15.785-105.21 21.197-82.666 59.732-156.38 115.71-220.7 56.675-65.124 125.32-113.9 205.38-146.28 43.958-17.78 89.584-29.297 136.75-34.855 32.465-3.826 65.003-5.2287 97.555-3.0184 70.698 4.8004 138.22 21.897 202.12 53.087 45.793 22.35 87.707 50.358 125.48 84.382 48.432 43.623 87.656 94.51 117.73 152.43 27.527 53.013 45.692 109.08 54.38 168.08 2.9432 19.989 2.9885 40.387 5.2278 60.501 2.3729 21.313 0.3252 42.518-1.1667 63.623-2.8176 39.862-10.254 79.061-22.93 117.03-6.7305 20.162-14.858 39.857-22.651 60.459m-783.89-659.97s-0.016968-0.090882-1.2661-1.3315c-1.8568 1.5352-6.1382 0.86304-4.734 5.33 0 0-0.017762-0.089966-1.1044-1.368-3.5077 2.1608-7.1747 4.1113-10.444 6.5865-1.2992 0.98352-1.7177 3.1303-2.4513 4.7829 0 0-0.014954-0.091675-1.0295-1.3752-3.0135 2.4376-6.027 4.8751-8.9749 7.3694 0 0-0.050232-0.069641-1.4117-0.11822-2.8859 2.6888-5.7719 5.3776-8.5883 8.119 0 0-0.052124-0.069031-1.5319-0.068909-2.991 2.4473-6.1042 4.7686-8.8704 7.4479-0.55621 0.5387 0.20538 2.4379-0.075988 3.8266 0 0-0.42627 0.75879-1.4484-0.81555-7.5198 2.2559-11.705 8.7277-18.145 14.36-6.946 8.4019-13.892 16.804-21.92 23.685-5.0937 5.2188-10.226 10.401-15.188 15.743-0.30804 0.33166 0.73178 1.9151 0.70731 3.0256 0 0-0.43817 0.7522-1.494-0.75629-3.3671 3.8328-6.7342 7.6656-10.033 11.551 0 0-0.054077-0.068237-1.4069 0.09021-2.2211 3.2863-4.4421 6.5726-6.5927 9.9086 0 0-0.052521-0.069336-1.3808 0.14081-1.5647 2.6051-3.1295 5.2101-4.6197 7.8604 0 0-0.05484-0.068054-1.4074 0.16559-4.2189 6.592-8.4377 13.184-12.594 19.834 0 0-0.063568-0.05719-1.4322 0.15045-2.4235 3.5691-4.9395 7.0793-7.2567 10.716-36.089 56.642-60.289 118.04-72.923 183.95-2.7349 14.268-4.0552 28.806-6.5422 44.9-0.51657 4.5964-1.3991 9.1856-1.4909 13.79-0.64059 32.162-2.5176 64.358 1.8757 98.113 0.70312 6.585 1.1397 13.211 2.1519 19.748 7.5561 48.802 20.665 96.045 41.676 140.8 9.2975 19.803 20.353 38.784 30.782 58.046 0.96555 1.7833 1.3322 5.4042 5.1664 3.7889 0 0-0.091888 0.014893-1.3651 1.1207 4.5317 7.2751 8.9932 14.596 13.69 21.763 0.54804 0.83643 2.3948 0.8219 3.6752 1.1155 0 0-0.091949 0.015747-1.3721 1.0957 3.1934 4.8202 6.2893 9.7111 9.6835 14.385 0.51959 0.71558 2.4167 0.43103 3.6982 0.51062 0 0-0.10071-0.001465-1.3938 1.0157 2.4403 3.0208 4.8806 6.0415 7.3775 8.9972 0 0-0.072723 0.046143-0.1058 1.4403 2.6929 3.2197 5.3858 6.4395 8.274 10.07 0 0 0.73554 0.51392 1.4524 1.8049 3.2014 3.7167 6.3004 7.5328 9.7076 11.05 0.55328 0.57117 2.4734-0.18176 4.2544 0.54077 1.4607 1.3326 2.9214 2.6653 2.8387 5.0413 5.2364 10.832 14.423 17.964 24.155 25.945 1.4416 1.3779 2.8834 2.7559 5.1341 5.3186 4.7545 3.9608 9.5088 7.9216 14.453 12.299 0 0 0.73944 0.51807 1.5854 1.7366 2.7479 2.2983 5.3812 4.762 8.3128 6.7957 0.89545 0.62134 2.6104 0.061279 3.9519-0.057984 0 0-0.098571 0.019653-1.2933 1.1217 3.0763 2.3207 6.1525 4.6415 9.2802 6.8937 0 0-0.069946 0.050903 0.084961 1.3979 2.6233 1.5585 5.2466 3.1169 7.9152 4.6021 0 0-0.068054 0.053589 0.16608 1.4069 2.0986 1.6285 4.1388 3.3397 6.3044 4.8735 61.043 43.236 128.22 72.493 201.54 87.111 20.415 4.0699 41.321 5.6729 63.725 8.8591 2.9862 0.041748 5.9939-0.13354 8.9553 0.15955 25.122 2.4855 50.203 1.8762 76.992-0.6488 12.822-1.3983 25.753-2.1559 38.449-4.3011 70.442-11.902 136.34-36.06 196.96-74.123 3.2336-2.0304 5.9836-4.8309 8.9022-7.3372 0 0 0.04541 0.07251 1.3809 0.27612 1.5598-1.4052 3.1196-2.8103 4.6191-4.2761 0 0 0.057739 0.063232 1.4724 0.23364 8.1272-5.7206 16.3-11.379 24.341-17.217 1.5022-1.0907 4.7175-1.9177 2.1727-5.0339 0 0-0.004028 0.10144 1.0624 1.4122 3.3494-2.455 6.6987-4.91 10.463-7.5593 0 0 0.51343-0.74072 1.8644-1.3428 2.9503-3.0679 8.1884-4.0319 8.9489-10.135 0.19324-0.77417 0.3866-1.5483 1.6013-0.74841 9.0381-3.4749 14.445-11.323 22.101-18.317 3.3333-3.3977 6.6665-6.7953 11.178-10.997 5.9634-6.7565 11.927-13.513 18.303-20.463 0 0 0.51892-0.73364 1.7841-1.621 2.5291-3.1924 5.1993-6.2891 7.4746-9.6531 0.48852-0.72229-0.45239-2.4113-0.2948-3.7566 0 0 0.44629-0.74805 1.519 0.73743 2.6921-3.1622 5.3843-6.3243 8.0084-9.5387 0 0 0.050781 0.070435 1.379-0.13965 1.5647-2.6051 3.1294-5.2101 4.621-7.8604 0 0 0.054199 0.067383 1.42-0.17737 2.5732-3.3625 5.37-6.5847 7.6141-10.154 0.9491-1.5096 0.73596-3.75 0.96094-5.6726 0 0 0.038819 0.082885 1.5336 0.97229 1.6111-2.0396 4.8778-3.4708 2.4652-6.9728 0 0 0.032105 0.086792 1.2443 1.1241 0.9419-1.6874 1.8838-3.3748 2.7618-5.1195 0 0 0.060181 0.060791 1.3967-0.1123 0.89184-1.9474 1.7838-3.8948 2.6033-5.8877 0 0 0.063354 0.057373 1.4366-0.15503 30.889-47.39 52.939-98.685 66.32-153.55 5.1602-21.158 8.0956-42.858 12.502-65.961 1.1528-11.543 2.928-23.064 3.3309-34.633 0.87915-25.243 1.4478-50.521-1.7266-77.409-1.4628-12.497-2.4089-25.081-4.4764-37.477-9.5792-57.435-27.619-112.12-55.476-163.29-10.307-18.933-22.36-36.923-33.858-55.191-1.218-1.9355-1.7742-6.0836-6.058-4.3279 0 0 0.090088-0.018066 1.3527-1.2017-2.0599-2.6974-1.6916-7.9761-7.353-6.7983 0 0 0.091186-0.014282 1.3765-1.0338-2.4381-3.0117-4.8762-6.0233-7.3707-8.9698 0 0 0.068726-0.051453 0.03479-1.6024-1.7841-2.2661-3.4062-4.6985-5.4546-6.6932-0.58606-0.57068-2.4069 0.12659-3.7792-0.19318 0 0-0.76562-0.41528 0.82483-1.5244-3.2185-4.3496-6.3903-8.7366-9.7588-12.967-0.23059-0.28943-1.9375 0.59686-3.3291 0.19476-0.83435-0.70654-1.6688-1.4131-0.9292-3.1414-1.2312-2.2878-2.0238-5.0022-3.766-6.7931-10.206-10.492-20.556-20.848-31.066-31.036-1.6906-1.6388-4.4248-2.2008-6.9987-3.9492-0.58667-0.46374-1.1732-0.92755-1.438-2.8732-4.0959-3.1632-8.192-6.3264-12.34-9.421 0 0 0.068237-0.054017-0.12524-1.4604-2.6595-2.2476-5.2056-4.6575-8.0475-6.6442-0.8562-0.59851-2.5348-0.020508-3.8396 0.11822 0 0 0.097778-0.019714 1.2959-1.1389-7.6671-5.9388-15.318-11.899-23.054-17.746-0.34399-0.26007-1.4597 0.50043-2.2341 0.87677 0 0 0.086304-0.035034 1.141-1.2313-5.6931-3.6129-11.386-7.2257-17.136-10.775 0 0 0.057251-0.063477-0.15369-1.4354-17.27-9.9412-34.14-20.675-51.896-29.657-35.702-18.06-73.217-31.612-112.33-40.116-20.36-4.4267-41.118-7.0175-63.351-10.947-1.661-0.073425-3.3334-0.047119-4.9814-0.23511-29.712-3.3887-59.457-4.5631-91.021-1.4688-15.42 1.8166-30.91 3.1823-46.25 5.5269-70.45 10.768-135.52 36.035-195.97 73.519-2.9584 1.8346-5.4138 4.4803-8.047 6.8126 0 0-0.056824-0.064087-1.5942-0.17426-0.82935 1.3828-1.6588 2.7656-2.4013 4.1807z"
      fill="black"
    />
    <path
      d="m496.9 1370s-0.73554-0.51392-0.093719-1.3021c-1.5283-4.1532-3.6187-7.5757-5.9636-10.814-0.31278-0.43201-1.9144 0.06897-2.9192 0.13794 0 0 0.072723-0.046143 0.70374-0.50647-1.8178-3.4916-4.2666-6.5228-6.7154-9.5541 0 0 0.10071 0.001465 0.11481-0.65247-4.0291-5.5433-8.0724-10.433-12.116-15.322 0 0 0.091949-0.015747 0.17197-0.68579-5.3373-8.2183-10.755-15.766-16.172-23.315 0 0 0.091888-0.014893 0.19107-0.6958-5.4366-10.528-11.125-20.293-16.481-30.237-21.565-40.032-38.2-82.008-47.859-126.48-4.9226-22.668-8.2847-45.675-12.257-69.392-0.55469-16.351-1.7614-31.84-1.7161-47.326 0.059814-20.468 1.1003-40.933 2.0391-62.104 2.9797-17.384 5.1259-34.165 8.3971-50.725 9.3915-47.542 25.539-92.78 48.283-135.57 7.6325-14.358 16.484-28.064 24.431-42.263 1.522-2.7197 5.5087-5.0951 2.994-9.2755 0 0 0.063568 0.05719 0.6077 0.58441 5.1357-5.7654 9.7545-12.039 14.247-18.402 0.25088-0.35522-0.53928-1.4456-0.84485-2.1937 0 0 0.05484 0.068054 0.65695 0.62921 3.1272-2.0161 7.618-3.5789 5.3459-8.6317 0 0 0.052521 0.069336 0.59714 0.67072 3.7084-2.6209 9.2457-4.3992 7.4008-10.668 0 0 0.054077 0.068237 0.55774 0.66559 3.8641-3.1485 7.2246-6.8943 10.585-10.64-3.1e-5 0 0.43814-0.7522 1.2372-1.2312 5.4537-5.9089 10.108-11.339 14.763-16.769 6.9461-8.4019 13.892-16.804 21.872-24.857 6.7338-4.1457 12.434-8.6402 18.133-13.135-6.1e-5 -6.1e-5 0.42621-0.75885 1.2777-1.1912 3.8242-2.8947 6.8728-5.2755 9.6948-7.9001 0.46759-0.43488-0.055115-1.9346-0.12024-2.9423 0 0 0.052124 0.069031 0.58362 0.68048 3.5277-1.4455 6.5999-3.4063 9.4468-5.6526 0.48511-0.38281 0.005433-1.9885-0.028503-3.0292 0 0 0.050232 0.069641 0.51349 0.70136 3.4843-1.818 6.5052-4.2678 9.5262-6.7176 0 0 0.014954 0.091675 0.67658 0.17248 4.8813-3.3368 9.101-6.7545 13.321-10.172 0 0 0.017762 0.089966 0.65265 0.18707 2.206-1.3308 3.7771-2.7586 5.3483-4.1864 0 0 0.016968 0.090882 0.75476 0.13818 2.2097-0.95612 5.1556-1.088 3.2009-4.1178 0 0 0.056824 0.064087 0.56958 0.68225 4.2901-1.4652 8.1581-3.4006 11.831-5.6547 36.461-22.378 75.017-40.066 115.77-53.22 40.38-13.034 81.8-20.18 124.83-24.018 8.8436-0.47498 16.764-1.1382 24.696-1.3558 7.6342-0.2095 15.295-0.24152 22.919 0.15057 15.182 0.78088 30.345 1.9062 46.33 3.1591 4.7326 0.85522 8.6433 1.5082 12.573 2.0157 55.688 7.1926 108.74 23.255 159.09 48.001 15.748 7.7409 30.743 17.005 46.248 25.261 2.7642 1.4717 5.0916 5.4907 9.2639 2.9791 0 0-0.057251 0.063477-0.57446 0.61658 5.1881 4.1747 10.894 7.7963 16.599 11.418 0 0-0.086304 0.035034-0.028564 0.68524 8.0493 6.2131 16.041 11.776 24.032 17.339 0 0-0.097778 0.019714-0.007812 0.67786 2.7606 2.8734 5.3219 5.2476 8.1677 7.2089 0.87415 0.60236 2.5267 0.075256 3.8229 0.065368 0 0-0.068237 0.054017-0.66785 0.57092 3.1012 4.7509 6.104 9.9198 12.618 10.386 0.58667 0.46374 1.1732 0.92755 1.7467 2.4785 13.414 14.629 26.842 28.171 40.27 41.713 0.83435 0.70654 1.6688 1.4131 3.0555 3.1107 4.0165 4.9574 7.4807 8.9238 10.945 12.89 0 0 0.76562 0.41528 1.148 1.3162 2.2025 3.1713 3.9144 5.5459 5.9244 7.6335 0.45874 0.47632 1.9467-0.038452 2.9609-0.097046 0 0-0.068726 0.051453-0.70068 0.51495 1.8177 3.4843 4.2676 6.5051 6.7174 9.5259 0 0-0.091186 0.014282-0.18213 0.65637 1.9998 2.8747 4.0906 5.1072 6.1814 7.3398 0 0-0.090088 0.018066-0.17041 0.68921 0.95398 2.3671 1.8968 4.1271 3.0359 5.7496 33.178 47.259 57.678 98.666 74.095 154.01 9.859 33.238 15.308 67.277 19.354 102.48 0.42017 8.4756 1.1499 16.064 1.2797 23.662 0.49854 29.193 0.16602 58.363-3.6533 88.206-0.84729 5.0673-1.4091 9.3363-2.0618 13.591-5.0996 33.24-13.239 65.707-24.61 97.371-12.291 34.228-28.09 66.749-46.945 97.829-1.4722 2.4266-5.0264 4.73-2.3456 8.4836 0 0-0.063354-0.057373-0.76709-0.49194-2.3917 1.567-5.6345 3.0005-3.2361 6.4954 0 0-0.060181-0.060791-0.62073-0.58191-1.5115 1.187-2.4625 2.8951-3.4135 4.6033 0 0-0.032105-0.086792-0.66882-0.00769-1.5322 2.0541-2.4277 4.0292-3.3232 6.0043 0 0-0.038819-0.082885-0.69128 0.007691-3.2096 3.4935-5.9825 6.7622-8.2212 10.363-0.93884 1.5101-0.74573 3.724-1.0673 5.6179 0 0-0.054199-0.067383-0.65686-0.62866-3.1305 2.0146-7.6178 3.5793-5.3466 8.6317 0 0-0.050781-0.070435-0.5647-0.66821-3.1982 2.4851-5.8828 5.5681-8.5673 8.651 0 0-0.44629 0.74805-1.2748 1.2749-3.1433 3.3054-5.7036 5.9259-7.6459 8.944-0.72925 1.1332-0.022705 3.1903 0.029419 4.8262 0 0-0.51892 0.73364-1.2723 0.10303-7.0741 5.8319-13.431 12.261-19.625 18.842-0.36792 0.39087 0.56738 2.0083 0.89648 3.0551-3.3333 3.3977-6.6665 6.7953-11.011 9.8229-3.5316 1.0868-6.3622 2.1903-8.5092 4.0731-4.7175 4.1376-9.0892 8.6694-13.602 13.04-0.19312 0.77417-0.38648 1.5483-1.5457 2.491-4.0283 2.5955-7.16 4.9451-10.066 7.5469-0.36511 0.3269 0.45898 1.9823 0.73206 3.0221 0 0-0.51343 0.74072-1.2485 0.097901-4.0881 1.8685-7.441 4.38-10.794 6.8914 0 0 0.004028-0.10144-0.65308-0.11365-8.6938 5.6925-16.803 11.301-24.697 17.197-1.3333 0.99597-1.7397 3.2329-2.5745 4.8965 0 0-0.057739-0.063232-0.64551-0.66528-2.4816 0.8844-6.7692 0.20276-5.3668 4.6746 0 0-0.04541-0.07251-0.55859-0.69128-3.4554 0.89526-6.5355 2.1921-9.3193 3.9563-40.108 25.417-83.012 44.671-128.43 58.4-35.346 10.685-71.605 16.629-109 20.742-16.917 0.41174-33.05 1.1108-49.184 1.1628-11.841 0.038208-23.686-0.77197-36.365-1.4766-15.262-2.141-29.735-3.7014-44.104-5.9334-50.51-7.8453-98.456-23.831-144.35-46.15-25.13-12.22-48.809-26.885-71.83-42.671-2.6337-1.806-4.7959-5.4604-8.9771-3.3572 0 0 0.068054-0.053589 0.62921-0.65637-2.0153-3.129-3.5786-7.6184-8.6312-5.3463 0 0 0.069946-0.050903 0.64404-0.55762-2.5038-2.8341-5.5817-5.1616-8.6595-7.489 0 0 0.098571-0.019653-0.01239-0.7041-3.0993-3.1067-5.9782-5.6908-9.1528-7.8373-0.7926-0.53577-2.5389 0.33911-3.8469 0.56555 0 0-0.73944-0.51807-0.10657-1.2933-3.5218-4.9097-7.5857-9.1442-11.927-13.072-0.66705-0.60352-2.613 0.20666-3.9675 0.36292-1.4416-1.3779-2.8834-2.7559-3.8983-5.0769-7.3948-9.3103-15.216-17.678-23.038-26.045-1.4607-1.3326-2.9214-2.6653-5.0051-5.0681-3.8051-4.7645-6.8823-8.5604-10.271-12.054-0.57132-0.58874-2.4889 0.12842-3.7844 0.24219m905.07-201.29c9.1193-32.142 15.07-64.902 17.56-98.177 4.9188-65.75-1.4518-130.37-20.695-193.61-70.379-231.29-293.48-388.2-541.42-367.41-66.87 5.6054-130.23 23.283-190.2 53.309-220.12 110.2-333.23 360.98-269.97 598.61 70.04 263.1 329.21 427.78 597.15 378.68 127.41-23.345 231.53-86.801 313.01-187.22 44.009-54.24 74.892-115.51 94.57-184.19z"
      fill="#2791B"
    />

    <path
      d="m534.15 1150c-8.0054-20.587-12.536-42.096-15.716-63.808-10.158-69.338-3.6658-137.21 23.676-201.83 54.139-127.96 149.6-208.77 285.94-235.27 214.46-41.688 408.63 99.757 450.11 297.9 22.043 105.31 3.6018 203.71-56.385 294.62-2.0681 0.41467-2.9474 0.41187-3.8524-0.45776-4.3385-36.903-8.5439-72.953-13-108.97-3.1494-25.455-7.7449-50.903-6.1178-76.586 1.7665-27.884 5.1588-55.675 8.2656-83.459 1.3558-12.125 3.7654-24.132 5.7037-36.239 6.83-0.34003 12.687-0.63165 18.54-0.9231 0.41101-4.5216 0.73535-8.0889 1.1021-12.122 5.2369-0.32013 10.093-0.61694 15.098-0.92285v-11.73c-5.3859-0.26312-9.9827-0.48773-15.199-0.74255 1.5758-11.558-6.3094-14.676-14.627-16.993-6.0065-1.6735-12.213-2.6281-18.265-3.8895-0.68994-3.7062-0.30554-8.8504-2.0532-9.7226-6.0546-3.0214-4.6831-8.2234-5.3226-12.861-2.187-15.86-4.2415-31.739-6.3464-47.611-0.63464 0.004211-1.2693 0.008423-1.9039 0.012634-2.1591 19.421-4.3181 38.841-6.5026 58.49-2.4685 0.56567-4.6281 1.0606-6.991 1.6021-0.37134 3.4838-0.71252 6.6838-1.0806 10.136-5.5646 1.1307-10.751 2.1063-15.9 3.248-9.5717 2.1221-18.001 5.509-17.493 18.345h-17.409v12.219h17.347c0.63477 4.6643 1.1541 8.4806 1.7748 13.043 3.4761 0 6.4175-0.072388 9.3536 0.020324 2.9056 0.091797 5.8059 0.35034 8.8529 0.54492 11.378 66.21 21.401 131.73 6.8101 198.17-1.8658-12.49-3.3414-25.046-5.6655-37.443-8.4735-45.199-29.147-84.63-57.029-120.78-57.437-74.473-132.53-117.34-226.38-125.33-71.577-6.089-138.55 9.9236-199.31 48.565-69.935 44.476-117.02 106.04-135.11 187.89-4.5664 20.67-9.1665 41.807-1.8632 62.929-1.4257-0.020386-2.2404-0.028442-3.0551-0.036621z"
      fill="black"
    />
    <path
      d="m1197.7 1274.7c-19.113 24.667-41.943 45.498-66.927 63.972-56.389 41.696-119.45 66.346-189.28 73.753-176.73 18.743-336.12-83.645-398.59-239.71 1.4121-0.70349 2.2587-0.69958 3.8216-0.40662 11.229-5.4965 22.411-9.3727 33.914-12.822 6.4551-1.9358 12.664-6.1362 17.831-10.639 12.798-11.154 25.182-22.816 37.276-34.737 18.519-18.255 36.777-36.683 58.901-50.821 18.74-11.975 37.794-13.214 57.993-4.3738 18.17 7.9524 34.43 18.874 49.934 31.045 13.892 10.906 27.638 21.998 41.573 32.848 13.193 10.272 26.99 12.436 41.408 2.3441 5.7714-4.0399 11.84-4.094 17.969-1.0602 3.8732 1.9172 7.6168 4.1082 11.352 6.2896 18.984 11.085 37.906 22.275 56.931 33.286 9.8749 5.7155 20.276 9.0267 31.362 3.5778 22.495-11.056 43.946-7.986 64.65 4.5563 9.9673 6.0383 19.853 12.266 29.37 18.982 17.123 12.084 33.576 25.24 55.56 30.229-0.8855 7.481-1.6801 14.193-2.5417 21.472-11.571-6.8571-21.989-13.345-32.7-19.306-16.651-9.2676-32.762-19.193-46.243-32.913-2.7831-2.8325-6.0927-5.1779-9.2999-7.5586-15.637-11.607-31.886-15.146-50.388-5.9512-17.355 8.6244-35.039 7.0879-51.572-2.8948-7.9529-4.8022-15.229-10.727-22.797-16.164-5.1357-3.6891-10.023-7.7827-15.414-11.046-12.071-7.3073-24.869-9.1506-38.252-3.6592-17.4 7.1392-32.567 3.1416-46.054-9.2104-1.965-1.7997-3.8164-3.7236-5.7154-5.595-23.39-23.049-49.797-42.263-77.459-59.694-21.688-13.667-38.259-10.704-56.606 7.0547-24.656 23.866-49.69 47.353-74.97 70.558-17.675 16.224-37.877 28.197-61.756 33.219-3.2534 0.6842-6.2075 2.7911-9.5055 4.3354 1.661 3.6313 2.6697 6.0835 3.8869 8.4276 1.1877 2.287 2.5882 4.4636 3.9752 6.8248 37.511-4.5309 71.193-16.312 97.826-43.702 12.311-12.66 24.115-25.812 36.305-38.591 5.2828-5.5377 10.658-11.064 16.535-15.939 8.0712-6.6959 13.133-6.5276 21.334 0.24683 4.6093 3.8079 8.8218 8.1245 12.999 12.42 7.7278 7.9469 7.7863 8.0912 1.6432 17.544-4.6801 7.2014-6.5023 14.684-2.6832 22.665 6.1798 12.914 12.353 25.848 19.102 38.468 7.3197 13.688 16.901 25.713 30.375 33.843 13.292 8.0199 24.491 18.24 34.919 29.618 4.661 5.0857 10.244 9.593 16.102 13.253 9.1405 5.7113 19.416 6.7805 29.864 4.0551 6.7704-1.766 7.8563-4.6283 4.7567-11.005-0.43561-0.89612-1.0309-1.7133-1.5117-2.5891-6.7648-12.327-4.093-17.414 10.058-19.116 1.3199-0.15881 2.6596-0.15063 3.9896-0.22827 9.7018-0.56592 18.362 2.7974 26.596 7.3694 8.7338 4.8494 17.21 10.164 25.968 14.968 3.4564 1.8958 7.2606 3.5287 11.101 4.2593 4.7452 0.90271 7.6192-2.989 5.7647-7.495-1.1213-2.7244-3.2109-5.0332-4.66-7.6428-5.3457-9.6273-1.5552-16.554 9.5214-16.83 3.5549-0.088745 7.2094 1.0631 10.703 2.0531 3.51 0.99463 6.8433 2.5961 10.315 3.7461 3.7583 1.2448 7.826 3.1779 11.08-0.70752 3.1049-3.7076 2.7364-8.0314 0.9425-12.275-1.6844-3.9841-3.687-7.8534-5.0991-11.929-3.2795-9.4662-0.55658-16.237 8.0894-20.961 17.775-9.7108 33.136-3.7686 39.306 15.621 1.7969 5.6471 2.2565 11.724 3.2666 17.615 0.89929 5.2448 1.3217 10.604 2.6351 15.739 4.3281 16.919 14.92 27.958 31.921 32.427 4.8094 1.2642 9.7889 2.5649 14.703 2.6143 12.672 0.12708 22.894 6.2968 33.116 12.491 5.6267 3.4097 10.864 7.4618 16.517 11.391-0.61597 7.0471-1.2332 14.107-1.9355 22.143 12.302-5.9384 6.3351-18.161 11.538-26.613 3.3875 0 7.0637-0.40124 10.618 0.088013 6.3542 0.87463 10.741-1.7507 14.716-6.38 5.1909-6.0452 10.795-11.735 17.177-17.416 1.5873 0.29651 2.2191 0.43103 2.8508 0.56555z"
      fill="black"
    />
    <path
      d="m1030.1 594.03c-4.8645 8.7133-9.4502 17.603-14.771 26.028-1.5109 2.3925-5.0278 4.457-7.868 4.8326-3.5303 0.4668-6.0815-2.5095-6.8198-6.0868-0.53247-2.58-0.54394-5.2952-0.55029-7.9506-0.018311-7.6605 0.090515-15.321 0.13501-22.982 0.019287-3.3182 0.003234-6.6366-1.5286-10.288-1.5089 5.4083-3.0775 10.801-4.5111 16.229-1.6986 6.4309-3.1534 12.929-4.9603 19.328-1.137 4.0266-3.8 6.3776-8.2393 4.9811-4.0635-1.2781-4.4785-4.6507-3.6194-8.1275 4.1497-16.795 8.3957-33.566 12.672-50.329 1.2282-4.814 4.7286-6.4321 9.1898-5.2122 8.5307 2.3326 12.587 1.2863 12.262 14.362-0.24762 9.9679-0.049195 19.947-0.049195 32.257 2.6366-3.3084 4.1193-4.7543 5.1097-6.4824 4.6348-8.0868 9.0086-16.325 13.721-24.365 3.8812-6.623 15.577-7.302 20.074-0.97949 1.2925 1.8173 1.4587 5.1282 0.90064 7.457-3.7986 15.85-7.9264 31.621-11.961 47.415-0.16394 0.64178-0.46362 1.2482-0.68884 1.8751-1.228 3.4182-3.2369 6.2282-7.261 5.1937-4.2125-1.0829-5.7323-4.3552-4.684-8.5551 2.0948-8.3923 4.312-16.754 6.476-25.129 0.1665-0.64404 0.31262-1.2933 0.80298-3.3109 0.91699-3.8112 1.4991-6.2515 2.0814-8.6919-0.47693-0.19696-0.95386-0.39392-1.4308-0.59088-1.4939 3.0412-2.9879 6.0824-4.4819 9.1236z"
      fill="black"
    />
    <path
      d="m1077.9 603.71c-4.6388 10.296-9.2225 20.617-13.97 30.863-0.81006 1.7484-2.0367 3.5659-3.5645 4.6671-3.6003 2.5953-8.7299 0.17969-8.745-4.2208-0.008789-2.531 0.96265-5.2098 2.0352-7.5763 6.3176-13.939 12.711-27.846 19.254-41.68 3.2181-6.8046 4.8833-7.5521 10.591-5.903 8.3318 2.4073 11.301 5.4567 10.391 12.045-1.2729 9.2169-3.158 18.349-4.7665 27.52-0.39783 2.2681-0.73975 4.546-1.3958 8.6028 2.6495-2.3685 4.3132-3.5478 5.5939-5.0528 6.2568-7.3535 12.257-14.93 18.653-22.159 4.7703-5.3911 9.2791-5.2177 16.585-0.082092 4.3441 3.0537 4.777 5.2401 1.632 12.155-6.3361 13.931-12.844 27.783-19.282 41.668-0.27978 0.60345-0.55066 1.2114-0.84619 1.8072-1.7263 3.4807-3.8496 6.487-8.4111 5.1246-3.7928-1.1329-5.063-4.8828-2.9301-10.065 2.7839-6.7636 6.1077-13.303 9.1012-19.983 1.0444-2.3304 1.798-4.7911 1.51-8.2065-1.5721 1.185-3.4344 2.1267-4.6664 3.5967-5.5591 6.6332-10.858 13.484-16.42 20.115-2.6125 3.1147-5.5388 5.918-10.262 3.6311-4.5441-2.2001-4.791-6.158-4.0892-10.22 2.0381-11.797 4.3164-23.552 7.2004-36.535 0.22644-2.3727-0.24719-3.5334-0.72095-4.6941-0.82544 1.5275-1.6509 3.0549-2.4764 4.5824m32.018 17.633c0.80884-0.42304 1.6178-0.84607 3.5118-1.8569 0.13928-1.1979 0.27856-2.3959 0.98987-3.7344-0.14758 0.091614-0.29517 0.18329-1.4784 0.68884-0.81067 1.2141-1.6212 2.4283-3.0233 4.9024z"
      fill="black"
    />
    <path
      d="m1217.2 1297.3c5.9423-7.6791 11.431-14.788 16.925-21.893 0.81396-1.0524 1.6111-2.1234 2.4961-3.1144 2.5504-2.856 5.2655-5.6118 9.1978-2.1896 3.3335 2.9011 1.8888 5.9558-0.24072 8.8145-2.558 3.4337-5.1849 6.8157-8.4113 11.045 10.052 7.8157 19.703 15.296 29.325 22.814 3.1432 2.4558 6.327 4.8801 9.2783 7.5551 2.7667 2.5079 3.6176 5.7642 1.3101 8.9297-2.6639 3.6548-6.2904 3.5364-9.6412 1.0249-8.5156-6.3827-16.894-12.948-25.328-19.44-4.1866-3.2231-8.3722-6.4479-12.479-9.6105-6.6302 4.2401-8.3846 13.116-16.699 14.289-0.9342 8.0504-8.2246 11.588-13.011 18.158 4.4025 4.6473 8.8578 9.4211 13.392 14.119 5.5446 5.7439 11.175 11.405 16.725 17.144 1.6111 1.666 3.7878 3.2573 4.4088 5.2806 0.67017 2.1838 0.55334 5.2455-0.53674 7.1838-1.634 2.9052-4.9561 3.502-7.8433 1.605-2.4686-1.6218-4.5579-3.8463-6.7229-5.9011-9.8783-9.3761-19.724-18.786-30.366-28.932-3.0421 2.7716-6.7821 6.3442-10.711 9.6954-2.2412 1.9119-5.3246 2.5881-6.9894-0.11414-1.1349-1.842-1.626-5.8971-0.48144-7.0455 11.235-11.274 22.858-22.162 34.446-33.079 0.61279-0.57739 1.9105-0.42786 1.8689-0.41992 3.4702-5.5273 6.5522-10.437 10.086-15.917z"
      fill="black"
    />
    <path
      d="m509.76 805.82c2.283 0.028198 4.2882-0.59766 6.2735-1.2816 6.532-2.2503 12.561-1.3637 17.668 3.343 4.9887 4.5976 7.9445 10.598 5.3406 17.067-4.3329 10.764-9.6092 21.16-14.779 31.567-1.7048 3.4319-5.0275 4.1668-8.6023 2.6674-1.8383-0.77112-3.6034-1.7205-5.3847-2.6227-12.766-6.4659-25.582-12.837-38.271-19.453-6.9911-3.6454-7.8406-5.8832-4.6498-12.679 3.533-7.5251 7.4041-14.903 11.4-22.195 3.4214-6.2433 8.6212-10.466 16.056-9.9218 7.8014 0.57056 12.751 5.147 14.947 13.509m7.3926 39.311c6.3225-3.5339 7.3816-10.431 9.897-16.214 2.3115-5.3135 0.46472-9.5781-3.7807-11.976-4.5472-2.5688-9.3353-1.5158-12.774 3.7948-3.3156 5.1205-5.7908 10.785-8.833 16.588 5.4091 2.759 9.803 5.0002 15.491 7.8073m-37.121-24.462c-0.76965 2.0291-2.7712 4.1897 0.40118 5.8937 3.972 2.1337 7.995 4.1726 12.694 6.6154 2.7654-5.7865 5.3226-10.397 7.2021-15.269 2.0678-5.3598 0.281-9.7703-4.0268-11.639-4.0398-1.7525-7.322-0.48755-10.708 4.5138-1.8468 2.7281-3.3009 5.7221-5.5632 9.8851z"
      fill="black"
    />
    <path
      d="m1214 692.02c-7.4032 7.1208-14.808 14.239-22.209 21.363-5.4012 5.1993-8.7815 6.2174-11.914 3.5738-3.4204-2.8867-2.5552-6.8863 3.042-12.618 10.239-10.486 20.569-20.883 30.882-31.297 1.4031-1.4168 2.7546-2.9897 4.4204-4.0223 5.624-3.4866 12.124-0.13776 11.835 6.4924-0.24402 5.5979-1.7046 11.158-2.8057 16.7-1.5557 7.8301-3.3525 15.612-4.8804 23.448-0.47266 2.4238-0.40454 4.9529-0.73621 9.5381 7.962-7.9612 14.473-14.489 21.006-20.994 2.123-2.1138 4.0073-4.7463 6.5577-6.0617 1.9475-1.0045 5.1882-1.1384 7.1143-0.17737 3.1504 1.572 3.1038 4.8784 1.446 7.813-0.80249 1.4207-2.0007 2.6517-3.1587 3.8323-10.963 11.176-21.93 22.348-32.958 33.46-3.0355 3.0588-6.1221 6.7694-11.121 3.8015-4.8295-2.8676-4.8777-7.5437-3.9319-12.367 2.6885-13.71 5.4111-27.413 8.0465-41.678 0.081176-0.98236 0.23633-1.4047 0.39136-1.8271-0.34228 0.34058-0.68457 0.68121-1.0269 1.0218z"
      fill="black"
    />
    <path
      d="m520.41 1327.5c1.4984-3.7169 2.6241-7.4348 5.102-9.6178 11.485-10.118 23.273-19.899 35.099-29.621 6.647-5.4646 8.4172-5.3175 14.066 1.0216 5.3116 5.9611 10.509 12.049 15.383 18.369 6.567 8.5134 7.0404 15.854 2.0433 22.921-5.3699 7.5945-12.164 9.2386-22.973 5.6014-0.86841-0.29236-1.8146-0.35352-3.4278-0.65222-0.62775 3.4028-0.93237 6.6586-1.8625 9.7245-1.4417 4.7516-3.1472 9.4418-5.0566 14.026-1.1962 2.8718-3.2709 5.4233-6.88 4.3071-4.0383-1.2489-6.0448-4.5059-4.9826-8.5438 1.6889-6.4203 4.1101-12.644 6.0591-19.001 2.1696-7.0759 2.421-13.766-5.4302-19.24-4.9396 4.009-10.006 8.1386-15.093 12.244-4.178 3.3722-8.2253 4.5486-12.047-1.5393m58.919-3.1781c4.1-3.7964 4.1525-8.1978 1.1174-12.398-3.3703-4.6649-7.293-8.9307-11.079-13.495-3.0141 2.3491-5.1494 3.88-7.1283 5.5916-2.1531 1.8623-4.1608 3.8927-6.5957 6.1935 3.901 4.4401 7.2447 8.4663 10.832 12.262 3.1664 3.3512 6.9632 4.9458 12.854 1.8461z"
      fill="black"
    />
    <path
      d="m928.98 545.89c2.1862-0.14746 3.5126-0.20087 4.8392-0.24536 13.223-0.44269 24.755 3.2353 30.718 15.903 6.3699 13.531 5.3394 27.398-3.1374 39.78-7.6292 11.143-19.238 13.223-31.898 11.15-12.239-2.004-20.782-8.497-24.182-20.688-2.7549-9.8794-2.2606-19.704 1.9022-29.191 4.0347-9.1953 11.051-14.698 21.758-16.708m4.6476 10.259c-12.448 4.2127-17.346 12.771-15.994 27.951 0.94708 10.638 7.0869 17.469 16.277 18.109 9.8705 0.68762 17.289-5.2359 19.729-15.754 4.044-17.431-2.6907-28.551-20.012-30.307z"
      fill="black"
    />
    <path
      d="m920.39 1510.9c-0.94464 0.54602-1.2375 0.71069-1.5491 0.82397-13.274 4.828-26.486 5.5978-37.512-4.5005-11.559-10.587-12.389-24.687-8.6218-38.844 3.1951-12.007 11.65-19.098 24.222-20.656 17.929-2.2218 30.56 4.2238 35.989 18.238 6.4583 16.673 1.7046 34.485-12.528 44.939m-11.019-52.17c-8.8196-2.0704-16.776-1.0071-21.466 7.6838-5.2495 9.7267-4.9789 19.907 0.41473 29.453 6.2053 10.982 21.846 11.431 29.256 1.2167 8.2742-11.406 5.0253-29.463-8.2044-38.353z"
      fill="black"
    />
    <path
      d="m643.55 641.92c9.2477 6.0906 15.435 13.731 18.83 23.497 4.237 12.189 0.50427 24.009-10.246 32.93-11.052 9.171-24.569 11.503-35.07 4.4239-6.1547-4.1492-11.721-9.9381-15.873-16.117-6.7695-10.075-7.8328-21.379-0.65997-31.909 7.3252-10.754 17.407-17.497 31.025-16.592 3.8333 0.25482 7.5527 2.2241 11.993 3.7672m-18.198 50.706c3.5319 0.59393 7.108 1.8732 10.587 1.6484 9.0458-0.58453 16.777-9.756 15.361-18.581-1.7826-11.109-7.851-19.567-18.273-24.326-6.748-3.0815-13.037-1.4485-18.39 3.3251-5.3495 4.7708-7.5287 10.668-5.3394 17.874 2.5173 8.2846 7.5372 14.591 16.054 20.06z"
      fill="black"
    />
    <path
      d="m768.79 579.03c-1.1257-3.6075-2.1778-6.4341-2.7076-9.3554-0.60516-3.3369 0.87768-5.8819 4.1042-7.099 3.3218-1.253 6.4938-0.10522 7.562 2.9306 6.2824 17.856 12.311 35.804 18.158 53.808 1.016 3.1282-0.69641 5.9342-3.9959 7.096-3.7713 1.3278-6.5969-0.18536-8.1332-3.6713-1.4697-3.3347-2.5228-6.8531-3.7607-10.29-1.3225-3.6719-2.6469-7.3433-4.2667-11.836-9.1709 3.0322-17.515 5.7913-26.725 8.8364 1.8744 5.8469 3.5054 10.825 5.0594 15.827 0.78626 2.531 1.7155 5.0666 2.0726 7.6697 0.45111 3.2885-0.89331 5.9326-4.287 6.9471-3.3121 0.98993-5.8582-0.30078-7.605-3.1799-0.51215-0.84406-0.84778-1.8106-1.1669-2.7539-5.431-16.056-10.849-32.117-16.264-48.178-1.1381-3.3753-1.3206-6.6245 1.957-8.9647 3.6933-2.6371 8.1373-1.0457 10.272 4.0885 2.2797 5.4821 4.0009 11.196 6.4112 18.081 8.9837-3.0223 17.588-5.917 26.661-8.9696-1.1932-4.0189-2.1179-7.1329-3.3467-10.986z"
      fill="black"
    />
    <path
      d="m493.97 1288.1c-3.4749-5.7402-6.6823-10.796-9.6997-15.963-2.401-4.1112-1.6345-7.7269 2.4824-10.269 14.428-8.9099 28.872-17.795 43.374-26.585 4.1481-2.514 7.7054-1.3529 10.212 2.6836 6.1385 9.8866 12.213 19.813 18.271 29.749 1.6729 2.7437 2.6163 5.8177-0.55969 7.9474-3.5208 2.361-6.2737 0.54199-8.2816-2.6785-4.9126-7.8785-9.8145-15.764-15.304-24.583-4.5358 2.7343-8.652 5.2156-13.439 8.1016 2.7015 4.5392 5.0286 8.479 7.3857 12.401 2.0556 3.4199 4.1557 6.8131 6.2163 10.23 1.6451 2.7279 2.8293 5.8007-0.20361 8.035-3.499 2.5776-6.2819 0.49097-8.2426-2.6267-4.5652-7.2596-9.0236-14.586-13.928-22.538-5.4766 3.2952-10.174 6.1217-15.691 9.4412 4.9315 8.2244 9.5511 15.811 14.041 23.473 1.9337 3.2994 5.3898 6.7159 1.0709 10.534-2.96 2.6167-6.3126 0.9209-10.005-4.8416-2.5111-3.9189-4.904-7.9137-7.699-12.511z"
      fill="black"
    />
    <path
      d="m1311.7 1185.8c2.3365-3.4894 5.1523-5.1276 7.7106-2.2563 1.3241 1.4861 1.5863 4.9628 0.87073 7.0372-2.7988 8.1134-6.179 16.026-9.6097 24.687 5.6846 2.4319 10.785 4.614 16.64 7.1189 3.0247-7.2131 5.8352-13.897 8.6288-20.589 0.89624-2.1464 1.6694-4.3472 2.6372-6.4598 1.5927-3.4766 3.5276-7.0133 8.1616-4.8583 3.9032 1.8151 3.2659 5.1493 1.8492 8.5508-4.3433 10.428-8.3901 20.983-12.89 31.342-2.7676 6.3721-5.3685 7.537-11.838 5-14.848-5.8226-29.607-11.887-44.272-18.158-6.1949-2.6489-7.1222-5.3142-4.5437-11.99 3.8301-9.9166 8.0206-19.694 12.089-29.518 0.50488-1.2196 0.90344-2.9008 1.865-3.4238 1.8344-0.9978 4.4856-2.3048 5.9646-1.6373 1.4937 0.67407 3.1028 3.8767 2.6929 5.463-1.2358 4.7836-3.4427 9.3146-5.245 13.954-1.9054 4.9054-3.781 9.8224-5.8883 15.303 4.7563 1.9998 8.9675 3.7703 14.223 5.9799 3.6938-8.6454 7.1594-16.756 10.954-25.545z"
      fill="black"
    />
    <path
      d="m1067.1 1435.4c-4.9813 1.7795-7.3207-1.5813-10.307-3.5138-5.7662-3.7306-13.523-2.62-18.052 2.427-4.1677 4.6445-2.7156 10.081 3.3947 11.176 3.5035 0.62744 7.2507-0.1239 10.889-0.22595 5.6162-0.15784 11.387-1.1855 16.819-0.25354 12.273 2.1057 18.385 16.2 12.365 27.156-5.7036 10.38-23.282 17.623-34.655 14.267-5.3085-1.5667-9.9608-4.3147-12.06-9.553-0.78601-1.9615-0.297-5.6387 1.0963-6.9287 1.3839-1.2815 4.7772-1.0946 7.0222-0.51538 1.7053 0.43982 2.9254 2.5868 4.4763 3.8309 6.205 4.9775 15.4 4.5142 20.485-1.6824 1.8409-2.2433 3.2855-6.3479 2.475-8.7969-0.80237-2.4238-4.449-4.4515-7.2753-5.4888-2.2959-0.84302-5.2238 0.051148-7.8723 0.15088-5.3062 0.20007-10.633 0.75952-15.915 0.48047-6.8799-0.3634-11.709-4.0063-14.392-10.53-2.7361-6.6531-1.0887-12.363 3.3344-17.539 7.1167-8.3279 22.38-12.939 31.778-9.7 7.7874 2.6838 10.089 7.5217 6.3948 15.239z"
      fill="black"
    />
    <path
      d="m806.54 1495.6c3.3432-0.5238 6.1959-0.60522 8.398-1.8436 5.0499-2.8403 5.7758-8.6134 1.446-12.55-2.642-2.402-6.181-3.8132-9.3041-5.691-4.5546-2.7385-9.6439-4.8853-13.539-8.3655-10.074-9.0002-6.2829-25.062 6.7867-28.458 10.076-2.6178 20.122-1.2092 28.427 5.4567 3.138 2.5186 5.373 6.7124 6.8528 10.588 1.406 3.6824-0.048889 7.5212-4.3331 8.7795-4.1229 1.2109-5.7791-1.7454-7.2481-5.0703-4.0879-9.2526-7.494-11.462-15.451-10.866-3.6437 0.27283-7.2178 1.5157-7.5229 5.1696-0.19751 2.3643 1.7249 5.8992 3.7871 7.2694 5.7973 3.8519 12.257 6.6884 18.27 10.239 6.1179 3.6128 9.8913 8.7369 9.444 16.347-0.51294 8.7295-5.0671 15.092-13.605 17.735-11.395 3.5276-22.032 1.0221-30.915-6.3643-3.5099-2.9186-5.4877-8.1627-7.1031-12.724-1.283-3.6226 0.056763-7.6957 4.3342-8.8344 4.6052-1.2256 6.7169 2.0333 7.4283 6.0236 1.332 7.4713 5.5055 11.915 13.847 13.158z"
      fill="black"
    />
    <path
      d="m1147.9 1443.9c-10.905 6.3997-21.275 12.383-31.823 18.034-7.4427 3.988-9.8799 3.3828-13.806-3.5939-7.6675-13.626-15.158-27.356-22.466-41.177-3.3737-6.3807-2.7067-8.7609 3.3787-12.275 9.5045-5.4884 19.224-10.606 28.883-15.824 1.1455-0.61877 2.6681-1.4946 3.6906-1.1834 2.0092 0.61194 4.4135 1.575 5.4388 3.1727 0.6499 1.0128-0.34009 4.1945-1.5575 5.0809-3.7377 2.7214-7.9276 4.8264-11.964 7.132-4.8651 2.7788-9.7531 5.5176-15.471 8.7485 2.5785 4.7115 4.8616 8.8835 7.4928 13.692 6.8326-3.6138 12.933-6.8446 19.038-10.066 2.058-1.0861 4.0443-2.7366 6.2181-3.0474 1.9504-0.27856 4.7983 0.29175 6.0308 1.6196 2.1564 2.3231 1.0359 5.1548-1.517 6.7672-3.9293 2.4823-8.0725 4.6268-12.132 6.9026-4.0094 2.2479-8.0272 4.4811-12.639 7.0546 3.0056 5.6005 5.6228 10.477 8.7 16.211 7.3485-3.9622 14.004-7.5574 20.667-11.14 2.3428-1.2596 4.5968-2.7832 7.076-3.6693 5.5033-1.9662 7.4092-0.020752 6.7629 7.5612z"
      fill="black"
    />
    <path
      d="m743.69 1445.9c7.0072 2.5911 13.279 4.8083 19.476 7.2208 3.6088 1.4053 8.6724 2.4371 6.4067 7.9572-1.9135 4.6619-5.989 2.7269-9.4815 1.4807-6.8901-2.4585-13.798-4.8667-20.717-7.2452-0.58801-0.20203-1.3058-0.026612-2.7159-0.026612-1.8554 4.9897-3.785 10.179-6.0803 16.352 8.6662 3.2112 16.738 6.0874 24.715 9.2079 3.8207 1.4949 9.1841 1.9386 8.3344 8.0516-0.52844 3.8014-4.5472 4.3298-12.001 1.6851-9.4015-3.3354-18.82-6.6403-28.109-10.272-7.7693-3.0376-8.5874-4.9734-5.784-12.889 4.9957-14.106 10.083-28.181 15.325-42.198 3.0564-8.1729 5.3421-9.2659 13.578-6.459 9.4412 3.2177 18.763 6.7848 28.133 10.213 1.2494 0.45715 2.9868 0.6438 3.5998 1.5581 1.3161 1.9631 2.0458 4.3193 3.0156 6.5146-2.2575 0.9093-4.5234 2.557-6.7703 2.5317-2.5182-0.028442-5.0245-1.5565-7.527-2.4572-6.7995-2.447-13.594-4.9071-21.151-7.6365-1.0887 5.9851-6.7878 9.9485-2.247 16.411z"
      fill="black"
    />
    <path
      d="m456.58 1213.7c-0.003784-7.4595 2.1759-13.238 7.3217-17.616 3.0215-2.5706 6.5305-3.838 9.8122-0.62329 3.1033 3.0399 1.2848 5.9314-0.82385 8.8313-6.4703 8.8986-6.8707 15.094-1.511 21.415 3.0128 3.5536 6.7163 5.7775 11.418 3.7113 4.2736-1.8779 5.2425-5.8457 4.8194-10.068-0.63034-6.2896-1.8582-12.532-2.2397-18.83-0.37839-6.2457 1.3138-12.007 6.975-15.659 6.147-3.9646 12.527-4.2389 18.827-0.31201 9.0461 5.6387 15.544 21.174 12.825 31.605-0.79431 3.0472-2.7239 6.0972-4.9155 8.4021-2.4814 2.6099-6.0485 2.9781-9.027 0.43726-2.8575-2.4377-2.0921-5.2922-0.11157-7.9982 0.78684-1.0751 1.5504-2.168 2.2951-3.2726 2.9426-4.3646 2.4977-8.7841 0.19086-13.229-2.6206-5.0496-6.373-7.5549-10.077-6.412-5.1003 1.574-4.7426 5.9382-4.4298 9.8962 0.49731 6.2942 1.5644 12.544 2.0477 18.839 0.65302 8.5042-2.5959 14.959-10.743 18.405-7.8744 3.3303-16.592 1.3695-22.785-5.2422-5.6577-6.0408-8.4772-13.444-9.8684-22.28z"
      fill="black"
    />
    <path
      d="m1141.9 673.64c11.659 10.283 17.428 9.8442 25.81-1.6198 5.6913-7.7845 11.076-15.793 16.667-23.651 1.3391-1.882 2.6353-4.3463 4.5343-5.1305 2.0972-0.86603 5.277-0.86401 7.2069 0.18799 1.4775 0.80536 1.8215 3.8062 2.4965 5.8868 0.16834 0.5188-0.17725 1.3692-0.54871 1.8742-9.2361 12.554-18.482 25.1-27.82 37.578-0.74756 0.99896-2.1195 1.5959-3.2937 2.2002-9.2045 4.7378-20.737 1.6282-31.546-8.4595-9.0182-8.4166-11.106-16.37-6.0569-26.767 2.7369-5.6363 6.5569-10.766 10.072-16 4.0789-6.0733 8.2941-12.058 12.578-17.989 2.3369-3.2351 5.3594-5.1279 9.4027-2.8965 3.478 1.9194 4.2271 5.8994 1.2482 10.438-6.0199 9.1718-12.493 18.045-18.697 27.098-3.4895 5.0928-6.1766 10.396-2.0543 17.251z"
      fill="black"
    />
    <path
      d="m1184.3 1399.5c-5.8695 4.4756-11.116 8.5031-16.551 12.675 1.2755 4.6459 2.4266 8.7699 3.5376 12.905 1.0389 3.8666-0.38953 6.6219-4.1114 7.8696-3.9453 1.3225-6.321-0.86829-7.8054-4.2549-0.66309-1.5129-1.1074-3.1301-1.5608-4.7255-4.2747-15.041-8.5402-30.084-12.778-45.135-0.53943-1.9163-1.1202-3.8613-1.3094-5.8289-0.85767-8.917 5.7466-13.699 14.066-10.184 1.8253 0.77124 3.4767 1.9602 5.193 2.9822 12.587 7.4952 25.175 14.99 37.751 22.504 1.9998 1.1948 4.021 2.3795 5.8912 3.76 3.3939 2.5052 4.7129 5.7521 2.0898 9.4626-2.3447 3.3169-5.6287 3.1099-8.8893 1.3289-2.6288-1.4362-5.2695-2.8832-7.7404-4.5669-2.7133-1.8489-4.95-1.1345-7.7836 1.2086m-20.736-3.66e-4c7.1062 0.52173 10.069-5.3564 15.818-9.4926-7.9159-5.0154-14.852-9.4103-23.731-15.036 2.8821 9.3652 5.0061 16.267 7.9128 24.528z"
      fill="black"
    />
    <path
      d="m510.7 754.96c1.4402-10.183 4.1718-12.907 12.732-11.083 17.564 3.7418 35.004 8.0924 52.422 12.485 5.4807 1.3821 7.3729 4.4747 6.41 8.4394-0.94586 3.8948-3.8815 5.1541-9.6273 4.0681-1.962-0.37085-3.9004-0.86542-5.854-1.2827-1.5982-0.34149-3.2031-0.65216-5.4139-1.0997-4.8701 6.7303-9.7183 13.43-14.949 20.66 1.8625 3.1347 3.649 6.2156 5.5085 9.2518 2.1635 3.5326 4.2905 7.1692 0.375 10.736-3.0367 2.766-7.4776 1.4828-10.713-3.4927-10.341-15.904-20.45-31.959-30.89-48.68m16.795 1.6282c-0.33649 0.97675-1.265 2.3364-0.91888 2.8718 4.0237 6.2239 8.2397 12.323 13.142 19.541 4.113-5.8996 7.3704-10.572 11.152-15.997-8.1099-2.2697-15.005-4.1995-23.375-6.4159z"
      fill="black"
    />
    <path
      d="m878.03 568.31c-8.5981-10.629-14.958-13.276-23.234-9.9577-7.3601 2.9514-11.613 11.653-10.453 22.859 0.47064 4.5452 1.754 9.1699 3.5616 13.374 2.5906 6.0252 7.7617 9.1043 14.333 8.986 6.8436-0.12323 12.173-3.1251 15.048-9.6358 0.93701-2.1219 1.1901-4.7402 2.6121-6.3965 1.2942-1.5075 3.946-3.0212 5.6381-2.6895 1.7302 0.33923 4.3522 3.0106 4.2499 4.5009-0.28571 4.1611-0.99854 8.6559-2.9316 12.278-8.1605 15.289-38.2 18.429-49.382 0.48462-7.1135-11.416-8.962-23.64-4.5069-36.34 6.5736-18.739 31.669-25.875 47.23-13.54 2.5167 1.9948 4.7291 4.7811 6.1562 7.6605 3.2819 6.6219 0.3822 9.7799-8.323 8.4163z"
      fill="black"
    />
    <path
      d="m679.41 1409.2c-3.8738 5.8054-7.9697 10.776-10.351 16.464-3.4219 8.1736-1.2925 15.234 4.4701 19.853 6.6197 5.3054 12.715 5.2849 21.002-0.10095 1.1125-0.72278 2.0988-2.0886 3.2454-2.2124 2.0951-0.22571 5.2842-0.52588 6.1667 0.62451 1.3156 1.7152 2.2166 5.8781 1.2071 6.8654-3.6665 3.5856-7.7878 7.6244-12.484 9.0725-16.35 5.0419-40.521-9.7089-37.521-32.13 1.3262-9.9143 5.3821-18.516 12.422-25.513 16.453-16.352 45.4-8.7688 51.111 13.446 0.85419 3.3225 0.63269 7.3046-0.38867 10.576-0.57147 1.8306-3.912 4.0187-5.8179 3.8558-1.7907-0.15283-3.4648-3.0869-4.9168-5.0045-0.49603-0.65503-0.087037-1.9482-0.22003-2.9325-2.2642-16.765-12.732-21.874-27.925-12.863z"
      fill="black"
    />
    <path
      d="m684.63 598.27c5.9989-0.19672 11.484-1.1176 16.434 0.11401 3.8019 0.94598 7.2753 4.2672 10.167 7.2402 0.99817 1.0264 0.5481 4.809-0.60608 6.1972-1.1273 1.3562-4.103 1.9366-6.0733 1.6262-2.1481-0.3385-4.017-2.2099-6.1052-3.2092-11.483-5.4945-23.881 2.2398-23.451 14.995 0.32782 9.7148 4.6556 17.975 11.928 24.386 4.826 4.2543 10.49 5.4722 16.668 2.6145 6.2605-2.8953 10.039-7.4902 10.298-14.56 0.084778-2.3178-0.63428-4.8315 0.054687-6.9109 0.61414-1.8536 2.4749-4.23 4.1335-4.5453 1.7483-0.33234 4.6913 0.96509 5.7435 2.493 3.2349 4.6978 2.7857 10.143 1.2462 15.351-4.5121 15.264-24.821 24.972-39.676 19.097-14.015-5.5426-25.353-24.673-23.115-39.612 1.9128-12.765 9.8638-20.628 22.352-25.276z"
      fill="black"
    />
    <path
      d="m1336.2 1029.3c2.2587-4.6047 0.33789-6.9385-2.6605-9.0793-4.9989-3.5692-9.8865-7.2942-14.302-12.622h23.635c2.9852-8.2889 5.7135-15.865 9.2472-25.677 3.3788 9.6 5.9558 16.922 8.9567 25.449h23.844c0.1344 0.63013 0.2688 1.2603 0.40332 1.8904-6.1875 4.7293-12.375 9.4586-18.905 14.45 2.4122 8.0683 4.7369 15.844 7.7032 25.766-8.3163-5.8625-14.769-10.411-22.051-15.544-6.4501 4.5829-13.102 9.3093-21.127 15.011 0.67749-7.6467 3.5165-13.096 5.2554-19.644z"
      fill="black"
    />
    <path
      d="m432.76 1040c1.8201-5.7504 3.3639-10.786 5.0214-16.191-6.5136-4.9707-12.726-9.7111-20.921-15.966h25.979c2.9747-8.3171 5.6956-15.925 9.238-25.829 3.473 9.7261 6.1659 17.268 9.1258 25.557h23.623c0.18634 0.56464 0.37271 1.1293 0.55905 1.6939-6.1707 4.7064-12.341 9.4128-18.935 14.442 2.3655 7.994 4.6753 15.8 7.5875 25.641-8.3905-5.8086-15.089-10.446-22.077-15.283-6.8425 4.8373-13.466 9.5198-21.906 15.487 1.2414-4.5154 1.8354-6.6759 2.7056-9.5515z"
      fill="black"
    />
    <path
      d="m596.08 1380.1c10.777-5.8859 21.557-11.768 32.331-17.66 2.6289-1.4374 5.1886-3.0126 7.876-4.3285 3.3848-1.6573 6.6437-1.4436 8.717 2.0338 2.0526 3.4424 0.86798 6.3887-2.3156 8.5861-1.0934 0.755-2.2338 1.4553-3.4057 2.0812-14.395 7.6865-28.794 15.364-43.209 23.013-1.4634 0.77637-2.9764 1.5692-4.5631 1.9849-7.3327 1.9207-12.767-2.6029-11.981-10.081 0.23871-2.2722 1.072-4.5266 1.9041-6.6848 5.5081-14.287 11.089-28.545 16.651-42.811 0.36267-0.93018 0.77991-1.839 1.1464-2.7677 1.6232-4.1139 4.0699-7.0394 9.0312-5.5979 4.091 1.1887 5.1059 4.8357 2.8829 10.901-1.7172 4.6852-3.7903 9.2402-5.7082 13.852-3.4509 8.298-6.904 16.595-10.676 25.97-0.16779 1.6154-0.015625 2.1534 0.13648 2.6915 0.39459-0.39453 0.78918-0.78906 1.1837-1.1836z"
      fill="black"
    />
    <path
      d="m945.63 1457.4c-0.37152-9.9495-0.23358-10.571 7.243-12.064 9.7829-1.9534 19.668-3.4059 29.527-4.9611 3.6716-0.57922 7.0015 0.32361 7.3822 4.6041 0.33453 3.7627-2.6605 4.9238-5.8508 5.4778-7.8309 1.36-15.655 2.7588-24.506 4.323 0.59241 5.1123 1.1453 9.8834 1.8485 15.953 6.4848-0.88586 12.244-1.8186 18.037-2.4116 3.7845-0.38757 8.3408-2.0594 10.213 3.2499 1.2092 3.4291-1.6032 5.4016-8.9774 6.6869-5.2115 0.9082-10.419 1.8418-16.796 2.9709 0.40851 4.0522 0.79077 7.8623 1.1772 11.672 0.43555 4.2931 1.4501 8.6392 1.0613 12.856-0.18457 2.0016-2.8058 4.8958-4.7588 5.3046-1.9729 0.41284-5.0206-1.246-6.6011-2.9314-1.4232-1.5178-1.7572-4.2595-2.1227-6.5334-2.3234-14.456-4.5222-28.932-6.8766-44.196z"
      fill="black"
    />
    <path
      d="m1198.2 1274.4c-1.1472 0.18909-1.7791 0.054565-3.2941-1.1746-0.71606-25.104-0.54919-49.113 0.085327-73.156 0.94202-0.36877 1.4165-0.70435 1.8909-1.04-0.78613-0.35339-1.5724-0.70679-2.4996-1.9829-3.66e-4 -19.049 0.14038-37.176 1.1504-55.202 1.4515 0.13074 2.0341 0.16101 2.9375 0.86072 0.58594 1.9709 0.94556 3.2614 1.1017 4.5759 3.6036 30.337 7.1096 60.685 10.879 91.001 0.4104 3.3009 2.3158 6.416 3.5597 10.473 0.12512 1.9956 0.21814 3.1354 0.31128 4.2753-5.2021 7.0154-10.404 14.031-16.122 21.37z"
      fill="black"
    />
    <path
      d="m1327.4 823.35c-3.3303 4.9743-6.2296 9.3613-9.7938 14.754 8.0588 1.1854 14.891 2.1959 21.725 3.1923 1.9729 0.28754 3.9651 0.46008 5.9247 0.81677 3.7439 0.68146 6.3108 2.9934 5.9305 6.7645-0.39124 3.8786-3.4751 5.5308-7.2791 5.0878-6.5929-0.76776-13.29-1.2076-19.711-2.7504-9.856-2.368-18.983-1.8204-27.746 3.6177-2.4943 1.548-5.469 3.0955-8.2593 3.1633-2.5183 0.061096-6.012-1.2175-7.4203-3.1263-2.277-3.0864-0.64002-6.546 2.6576-8.3598 4.3566-2.3962 8.8739-4.5676 13.497-6.3928 4.847-1.9136 8.3912-4.8884 11.053-9.4258 4.032-6.8723 8.4342-13.538 12.926-20.123 1.4512-2.1272 3.4238-4.2203 5.6526-5.3713 1.2773-0.65973 4.4513 0.019654 5.1736 1.1328 1.2683 1.9545 2.3025 5.0304 1.6416 7.0496-1.1036 3.3712-3.6198 6.28-5.9722 9.9708z"
      fill="black"
    />
    <path
      d="m1297.2 750.03c7.3263 11.187 14.124 21.812 20.92 32.438 0.71533 1.1184 1.4297 2.2375 2.1349 3.3624 1.9435 3.1006 2.7811 6.2874-0.66968 8.7953-3.6222 2.6324-6.2386 0.41284-8.3158-2.4934-2.674-3.7407-5.1798-7.6014-8.0723-11.875-11.989 7.6063-23.442 14.903-34.933 22.14-2.5184 1.5861-5.0751 3.175-7.785 4.3772-3.2684 1.45-6.3507 0.094177-7.4415-2.8923-0.74609-2.0424-0.23584-5.347 1.0464-7.1262 1.652-2.2924 4.5658-3.7337 7.0599-5.3507 11.397-7.3895 22.838-14.712 34.891-22.462-2.6761-4.4374-5.429-8.1891-7.2415-12.35-0.90503-2.0779-1.0123-5.5224 0.15015-7.2546 1.9858-2.9596 5.1581-2.1887 8.2562 0.69196z"
      fill="black"
    />
    <path
      d="m1279.6 1266.5c5.796 3.3722 10.962 6.3699 16.164 9.3024 0.51562 0.29065 1.2552 0.18359 3.0387 0.40112 3.553-6.0879 7.3021-12.63 11.167-19.102 3.8146-6.387 6.3137-7.8365 9.6772-5.8702 3.4634 2.0245 3.5739 5.0299 0.014892 11.327-4.5721 8.0896-9.1499 16.186-14.057 24.073-3.7964 6.1017-6.199 6.8021-12.302 3.3538-14.156-7.9993-28.139-16.307-42.183-24.504-0.85742-0.50049-1.6969-1.0614-2.4513-1.7039-2.8948-2.465-3.8193-5.4784-1.7529-8.8185 2.1088-3.4084 5.4515-3.9062 8.7026-2.1469 7.8782 4.2631 15.585 8.8427 23.981 13.688z"
      fill="black"
    />
    <path
      d="m569.25 714.75c7.4474 7.1743 14.393 13.85 22.151 21.306 4.562-4.4963 8.9425-8.824 13.336-13.139 2.3675-2.3255 4.4861-5.0652 7.2408-6.7732 1.571-0.97418 5.3182-1.1079 6.0927-0.09552 1.2816 1.6754 1.1239 4.5766 1.2047 6.9738 0.025879 0.768-1.0424 1.6412-1.7269 2.3542-7.137 7.4351-14.167 14.981-21.504 22.213-4.0424 3.9846-7.1972 4.1959-11.329 0.34003-12.392-11.565-24.599-23.336-36.631-35.275-3.7978-3.7681-3.6827-7.791-0.64368-10.466 3.59-3.1602 6.837-1.5319 9.7346 1.077 3.9516 3.558 7.7244 7.3146 12.076 11.485z"
      fill="black"
    />
    <path
      d="m1281.1 726.87c1.7759 4.3253 0.35266 7.141-2.4556 9.394-13.449 10.79-26.882 21.601-40.459 32.227-1.6884 1.3214-4.2156 2.2388-6.3354 2.2043-4.6774-0.076294-7.267-5.3997-4.7666-9.5102 1.0023-1.6481 2.5687-3.0353 4.0995-4.2664 12.403-9.975 24.85-19.895 37.302-29.808 3.8362-3.0538 7.7682-5.511 12.615-0.24054z"
      fill="black"
    />
    <path
      d="m651.95 1398c-5.4093 7.6606-10.399 14.743-15.463 21.771-1.5529 2.1552-3.1533 4.319-5.0148 6.1984-2.4136 2.437-5.27 2.7601-8.0737 0.53894-2.7018-2.1403-3.3812-4.8745-1.7823-7.9758 0.91138-1.7677 1.944-3.4918 3.0914-5.116 8.6519-12.246 17.343-24.465 26.031-36.686 0.77167-1.0854 1.5579-2.1675 2.421-3.1799 2.618-3.071 5.6332-4.9463 9.4807-2.1277 3.6799 2.6958 3.6108 6.1519 1.2207 9.6395-3.7666 5.4962-7.6724 10.897-11.91 16.937z"
      fill="black"
    />
    <path
      d="m545.98 1172c-0.84656-0.004028-1.6931-0.007934-3.1744-0.023559-3.3218-6.837-6.0088-13.662-8.6713-21.25 0.83923-0.75378 1.654-0.74573 3.4951-0.1499 3.4678 7.5328 5.9092 14.478 8.3507 21.423z"
      fill="black"
    />
    <path
      d="m1214.9 1252.6c-0.66101-0.74402-0.75403-1.8838-0.74194-4.4712 1.3442-3.0114 2.5833-4.5753 3.8223-6.1393 0.87915 0.002808 1.7584 0.005615 3.297 0.010376-1.4969 3.4026-3.6531 6.8035-6.3773 10.6z"
      fill="black"
    />

    <path
      d="m1078.7 603.51c0.016479-1.3253 0.84192-2.8528 1.6674-4.3802 0.47376 1.1607 0.94739 2.3214 1.1113 3.9117-0.86304 0.37518-1.4163 0.32074-2.7787 0.46851z"
      fill="black"
    />
    <path
      d="m1217.9 1241.1c-1.2133 2.4308-2.4523 3.9948-3.8285 6.1504-1.3491-2.6096-3.2545-5.7247-3.6649-9.0256-3.7693-30.316-7.2753-60.665-10.879-91.001-0.15613-1.3146-0.51575-2.605-0.98547-5.3217-0.42102-2.9025-0.63696-4.3901-0.72485-6.752-0.79614-7.9158-1.7205-14.958-2.6448-21.999-0.22876 0.043213-0.4574 0.086426-0.68616 0.12964 0 7.5844 0 15.169-0.1123 23.459 0.006835 2.12 0.12598 3.5336 0.24524 4.9471-0.14087 18.127-0.28162 36.253-0.4364 55.836 0.089356 1.8116 0.19287 2.1671 0.29626 2.5227-0.16687 24.009-0.33374 48.019-0.573 72.961-5.4988 6.7754-11.103 12.466-16.294 18.511-3.9751 4.6293-8.3616 7.2546-14.716 6.38-3.554-0.48926-7.2302-0.088013-10.618-0.088013-5.2031 8.4517 0.76367 20.674-11.538 26.613 0.70239-8.036 1.3196-15.096 1.9355-22.143-5.6532-3.9296-10.891-7.9817-16.517-11.391-10.222-6.1942-20.443-12.364-33.116-12.491-4.9138-0.049316-9.8933-1.3501-14.703-2.6143-17.001-4.4684-27.593-15.508-31.921-32.427-1.3135-5.1346-1.7358-10.494-2.6351-15.739-1.0101-5.891-1.4697-11.968-3.2666-17.615-6.1697-19.39-21.53-25.332-39.306-15.621-8.646 4.7234-11.369 11.495-8.0894 20.961 1.412 4.0758 3.4147 7.9451 5.0991 11.929 1.7939 4.2435 2.1624 8.5673-0.9425 12.275-3.2537 3.8854-7.3214 1.9523-11.08 0.70752-3.4721-1.15-6.8054-2.7515-10.315-3.7461-3.494-0.98999-7.1485-2.1418-10.703-2.0531-11.077 0.27624-14.867 7.2026-9.5214 16.83 1.4491 2.6096 3.5388 4.9185 4.66 7.6428 1.8545 4.506-1.0195 8.3977-5.7647 7.495-3.8403-0.73059-7.6445-2.3635-11.101-4.2593-8.7578-4.8036-17.234-10.118-25.968-14.968-8.2344-4.572-16.895-7.9353-26.596-7.3694-1.33 0.077637-2.6697 0.069458-3.9896 0.22827-14.151 1.7023-16.823 6.7893-10.058 19.116 0.48077 0.87586 1.076 1.693 1.5117 2.5891 3.0997 6.377 2.0137 9.2393-4.7567 11.005-10.448 2.7255-20.723 1.6562-29.864-4.0551-5.858-3.6603-11.441-8.1676-16.102-13.253-10.428-11.379-21.628-21.598-34.919-29.618-13.474-8.1302-23.056-20.155-30.375-33.843-6.7485-12.62-12.922-25.554-19.102-38.468-3.819-7.9807-1.9968-15.463 2.6832-22.665 6.1431-9.4524 6.0847-9.5967-1.6432-17.544-4.1772-4.2957-8.3898-8.6123-12.999-12.42-8.2004-6.7744-13.262-6.9427-21.334-0.24683-5.8772 4.8757-11.253 10.402-16.535 15.939-12.191 12.779-23.995 25.931-36.305 38.591-26.633 27.39-60.315 39.171-97.826 43.702-1.387-2.3612-2.7875-4.5378-3.9752-6.8248-1.2172-2.3441-2.2259-4.7963-3.8869-8.4276 3.298-1.5443 6.2521-3.6512 9.5055-4.3354 23.879-5.0219 44.081-16.994 61.756-33.219 25.28-23.205 50.314-46.693 74.97-70.558 18.347-17.759 34.918-20.721 56.606-7.0547 27.661 17.431 54.069 36.645 77.459 59.694 1.899 1.8713 3.7504 3.7953 5.7154 5.595 13.486 12.352 28.653 16.35 46.054 9.2104 13.384-5.4915 26.181-3.6481 38.252 3.6592 5.3912 3.2634 10.278 7.3571 15.414 11.046 7.5682 5.4365 14.844 11.362 22.797 16.164 16.532 9.9827 34.217 11.519 51.572 2.8948 18.502-9.1946 34.751-5.6559 50.388 5.9512 3.2073 2.3807 6.5168 4.7261 9.2999 7.5586 13.481 13.721 29.592 23.646 46.243 32.913 10.711 5.9612 21.129 12.449 32.7 19.306 0.86169-7.2792 1.6562-13.991 2.5417-21.472-21.984-4.9891-38.437-18.145-55.56-30.229-9.5171-6.7163-19.402-12.943-29.37-18.982-20.703-12.542-42.155-15.612-64.65-4.5563-11.086 5.449-21.487 2.1377-31.362-3.5778-19.026-11.012-37.948-22.202-56.931-33.286-3.7357-2.1814-7.4792-4.3723-11.352-6.2896-6.1295-3.0338-12.198-2.9797-17.969 1.0602-14.417 10.092-28.215 7.9279-41.408-2.3441-13.935-10.85-27.682-21.942-41.573-32.848-15.503-12.172-31.764-23.093-49.934-31.045-20.199-8.8405-39.253-7.6011-57.993 4.3738-22.124 14.137-40.382 32.566-58.901 50.821-12.094 11.921-24.478 23.583-37.276 34.737-5.1669 4.5032-11.376 8.7036-17.831 10.639-11.502 3.4491-22.685 7.3253-33.914 12.822-3.1578-7.2343-5.5992-14.179-8.456-21.7-8.3298-21.709-3.7297-42.846 0.83673-63.516 18.081-81.846 65.17-143.41 135.11-187.89 60.76-38.641 127.73-54.654 199.31-48.565 93.847 7.9834 168.94 50.855 226.38 125.33 27.881 36.151 48.555 75.582 57.029 120.78 2.3241 12.397 3.7997 24.953 5.6655 37.443 14.591-66.448 4.5681-131.96-6.8101-198.17-3.047-0.19458-5.9473-0.45312-8.8529-0.54492-2.9362-0.092712-5.8776-0.020324-9.3536-0.020324-0.62073-4.562-1.14-8.3783-1.7748-13.043h-17.347v-12.219h17.409c-0.50781-12.836 7.9215-16.223 17.493-18.345 5.1495-1.1417 10.336-2.1172 15.9-3.248 0.36804-3.4525 0.70923-6.6525 1.0806-10.136 2.3629-0.54144 4.5225-1.0364 6.991-1.6021 2.1844-19.649 4.3435-39.069 6.5026-58.49 0.63464-0.004211 1.2693-0.008423 1.9039-0.012634 2.105 15.872 4.1594 31.75 6.3464 47.611 0.63953 4.6378-0.73193 9.8398 5.3226 12.861 1.7477 0.87219 1.3633 6.0164 2.0532 9.7226 6.0516 1.2615 12.258 2.2161 18.265 3.8895 8.3176 2.3174 16.203 5.4349 14.627 16.993 5.2166 0.25482 9.8134 0.47943 15.199 0.74255v11.73c-5.005 0.30591-9.8607 0.60272-15.098 0.92285-0.3667 4.0335-0.69104 7.6008-1.1021 12.122-5.853 0.29144-11.71 0.58307-18.54 0.9231-1.9384 12.107-4.3479 24.114-5.7037 36.239-3.1068 27.784-6.4991 55.575-8.2656 83.459-1.6271 25.684 2.9684 51.131 6.1178 76.586 4.4564 36.019 8.6619 72.069 13 108.97m-56.476-29.031c-2.7843 22.683-5.5686 45.367-8.4415 68.771h20.932v-155.71c-5.8884 28.172-8.8955 56.687-12.49 86.941m6.8243-242.93c1.4265 8.4219 2.853 16.844 4.2797 25.266 0.23889 0.001343 0.4779 0.002747 0.7168 0.004151v-59.283c-3.3026 0.19824-6.2981 0.37799-9.97 0.59839 1.7141 11.366 3.2443 21.512 4.9735 33.415m35.888-25.122c0.33106-2.5773 0.66211-5.1545 1.0671-8.3079h-6.605c0 11.661-9.77e-4 22.735 0.019775 33.809 1.22e-4 0.072937 0.29993 0.14532 1.0858 0.5025 1.4338-8.2401 2.8383-16.31 4.4323-26.004z"
      fill="white"
    />

    <path
      d="m1195.5 1141.8c-0.98828-1.5138-1.1074-2.9274-0.31311-5.0249 1.4469-0.70203 1.9803-0.71985 2.5139-0.73779 0.21606 1.4875 0.43201 2.9752 0.53198 5.2085-0.69861 0.71521-1.2811 0.68494-2.7328 0.5542z"
      fill="black"
    />
    <path
      d="m1195 1200c-0.57104-0.32239-0.67456-0.67786-0.6228-1.5668 0.94128-0.18005 1.7275 0.17334 2.5137 0.52673-0.47437 0.33569-0.94885 0.67126-1.8909 1.04z"
      fill="black"
    />
    <path
      d="m1161.6 1211.2c3.4834-29.359 6.4905-57.874 12.379-86.046v155.71h-20.932c2.8729-23.404 5.6572-46.088 8.5526-69.666z"
      fill="black"
    />
    <path
      d="m1168.2 968.28c-1.6298-11.025-3.1599-21.171-4.874-32.536 3.6719-0.2204 6.6674-0.40015 9.97-0.59839v59.283c-0.23889-0.001404-0.4779-0.002808-0.7168-0.004151-1.4266-8.4219-2.8531-16.844-4.3792-26.144z"
      fill="black"
    />
    <path
      d="m1204.1 944.85c-1.4991 8.882-2.9036 16.952-4.3374 25.192-0.78589-0.35718-1.0857-0.42957-1.0858-0.5025-0.020752-11.074-0.019775-22.149-0.019775-33.809h6.605c-0.40503 3.1533-0.73608 5.7306-1.162 9.12z"
      fill="black"
    />
    <path
      d="m1197.8 1135.2c-0.66174 0.89221-1.1952 0.91004-2.5298 0.90552-0.80115-7.6066-0.80115-15.191-0.80115-22.775 0.22876-0.043213 0.4574-0.086426 0.68616-0.12964 0.92432 7.0417 1.8486 14.083 2.6448 21.999z"
      fill="black"
    />
  </svg>